# xmcd
#
# Track frame offsets:
#	150
#	10217
#	40680
#	71352
#	87055
#	111322
#	125780
#	148830
#	162547
#	176087
#	184462
#	198425
#	208577
#	227657
#	243307
#
# Disc length: 3498 seconds
# Revision: 3
# Processed by: cddbd v1.5.2PL0 Copyright (c) Steve Scherf et al.
# Submitted via: dBpowerAMP V12.0
#
DISCID=d90da80f
DTITLE=Son House - Delta Blues [Biograph BCD 118 ADD]
DYEAR=1991
DGENRE=Blues
TTITLE0=Levee Camp Blues (4780-A2)
TTITLE1=Government Fleet Blues (4780-B1)
TTITLE2=Walking Blues (4780-B2)
TTITLE3=Shetland Pony Blues (4781-A1)
TTITLE4=Delta Blues (4781-B2)
TTITLE5=Special Rider Blues (6606-B2-5)
TTITLE6=Low Down Dirty Dog Blues (6607-A1)
TTITLE7=Depot Blues (6607-A2)
TTITLE8=American Defense (6607-B1)
TTITLE9=Am I Right Or Wrong (6607-B2)
TTITLE10=Walking Blues (6607-B3)
TTITLE11=Country Farm Blues (6608-A1)
TTITLE12=The Pony Blues (6608-A2)
TTITLE13=The Jinx Blues (6608-A3)
TTITLE14=The Jinx Blues (6608-B1)
EXTD=
EXTT0=
EXTT1=
EXTT2=
EXTT3=
EXTT4=
EXTT5=
EXTT6=
EXTT7=
EXTT8=
EXTT9=
EXTT10=
EXTT11=
EXTT12=
EXTT13=
EXTT14=
PLAYORDER=
